<?xml version="1.0" encoding="UTF-8"?>
<svg xmlns="http://www.w3.org/2000/svg" xmlns:xlink="http://www.w3.org/1999/xlink" width="354pt" height="432pt" viewBox="0 0 354 432" version="1.1">
<g id="surface35">
<path style="fill-rule:nonzero;fill:rgb(0%,0%,0%);fill-opacity:1;stroke-width:1;stroke-linecap:square;stroke-linejoin:miter;stroke:rgb(0%,0%,0%);stroke-opacity:1;stroke-miterlimit:3.239307;" d="M 130.082031 93.96875 L 88.339844 21.664062 L 73.058594 78.6875 Z M 130.082031 93.96875 " transform="matrix(1,0,0,1,-66,-5)"/>
<path style="fill-rule:evenodd;fill:rgb(0%,0%,0%);fill-opacity:1;stroke-width:1;stroke-linecap:square;stroke-linejoin:miter;stroke:rgb(99.998474%,99.998474%,99.998474%);stroke-opacity:1;stroke-miterlimit:3.25;" d="M 203.136719 220.5 L 203.136719 429.222656 C 268.027344 429.222656 329.226562 399.042969 368.726562 347.5625 C 408.230469 296.082031 421.542969 229.15625 404.75 166.476562 C 387.953125 103.800781 342.960938 52.496094 283.011719 27.664062 C 223.0625 2.832031 154.972656 7.292969 98.773438 39.738281 Z M 203.136719 220.5 " transform="matrix(1,0,0,1,-66,-5)"/>
<path style=" stroke:none;fill-rule:evenodd;fill:rgb(99.998474%,99.998474%,99.998474%);fill-opacity:1;" d="M 137.136719 215.5 L 137.136719 382.480469 C 189.046875 382.480469 238.007812 358.335938 269.609375 317.152344 C 301.210938 275.964844 311.863281 222.425781 298.425781 172.28125 C 284.988281 122.140625 248.996094 81.097656 201.035156 61.230469 C 153.074219 41.367188 98.605469 44.9375 53.648438 70.890625 Z M 137.136719 215.5 "/>
</g>
</svg>
